<svg xmlns="http://www.w3.org/2000/svg" xmlns:xlink="http://www.w3.org/1999/xlink" width="500" zoomAndPan="magnify" viewBox="0 0 375 374.999991" height="500" preserveAspectRatio="xMidYMid meet" version="1.0"><defs><filter x="0%" y="0%" width="100%" height="100%" id="aac67f2bc2"><feColorMatrix values="0 0 0 0 1 0 0 0 0 1 0 0 0 0 1 0 0 0 1 0" color-interpolation-filters="sRGB"/></filter><g/><clipPath id="3aad4d59ea"><path d="M 23.914062 147 L 77 147 L 77 278 L 23.914062 278 Z M 23.914062 147 " clip-rule="nonzero"/></clipPath><clipPath id="9bc873c009"><path d="M 23.914062 95.015625 L 333.664062 95.015625 L 333.664062 226 L 23.914062 226 Z M 23.914062 95.015625 " clip-rule="nonzero"/></clipPath><mask id="37ecf3efea"><g filter="url(#aac67f2bc2)"><rect x="-37.5" width="450" fill="#000000" y="-37.499999" height="449.999989" fill-opacity="0.8667"/></g></mask><clipPath id="925a6de13e"><rect x="0" width="238" y="0" height="168"/></clipPath></defs><g clip-path="url(#3aad4d59ea)"><path fill="#1c75bc" d="M 76.15625 277.988281 C 47.464844 277.988281 24.164062 254.863281 23.921875 226.246094 C 23.914062 226.089844 23.914062 225.941406 23.914062 225.785156 L 23.914062 147.710938 L 23.921875 147.710938 C 24.050781 163.175781 30.921875 177.046875 41.738281 186.515625 C 50.929688 194.574219 62.96875 199.453125 76.15625 199.453125 Z M 76.15625 277.988281 " fill-opacity="1" fill-rule="nonzero"/></g><g clip-path="url(#9bc873c009)"><path fill="#27aae1" d="M 309.621094 95.042969 L 333.664062 134.773438 L 309.621094 173.582031 L 76.15625 173.582031 C 62.96875 173.582031 50.929688 178.460938 41.738281 186.515625 C 40.871094 187.273438 40.027344 188.058594 39.214844 188.871094 C 29.757812 198.324219 23.914062 211.371094 23.914062 225.785156 L 23.914062 147.710938 L 23.921875 147.710938 C 23.914062 147.554688 23.914062 147.40625 23.914062 147.246094 C 23.914062 132.835938 29.757812 119.789062 39.214844 110.335938 C 48.675781 100.882812 61.730469 95.042969 76.15625 95.042969 Z M 309.621094 95.042969 " fill-opacity="1" fill-rule="nonzero"/></g><g mask="url(#37ecf3efea)"><g transform="matrix(1, 0, 0, 1, 85, 153)"><g clip-path="url(#925a6de13e)"><g fill="#ffffff" fill-opacity="1"><g transform="translate(1.442098, 95.072115)"><g><path d="M 44.8125 -18.484375 L 44.8125 -59.234375 L 55.046875 -59.234375 L 55.046875 0 L 44.953125 0 L 18.484375 -39.84375 L 18.484375 0 L 8.25 0 L 8.25 -59.234375 L 18.34375 -59.234375 Z M 44.8125 -18.484375 "/></g></g></g><g fill="#ffffff" fill-opacity="1"><g transform="translate(64.736128, 95.072115)"><g><path d="M 25.6875 1.4375 C 18.957031 1.4375 13.492188 -0.675781 9.296875 -4.90625 C 5.109375 -9.144531 3.015625 -14.585938 3.015625 -21.234375 C 3.015625 -27.953125 5.085938 -33.363281 9.234375 -37.46875 C 13.390625 -41.582031 18.875 -43.640625 25.6875 -43.640625 C 32.582031 -43.640625 38.101562 -41.582031 42.25 -37.46875 C 46.40625 -33.363281 48.484375 -27.953125 48.484375 -21.234375 C 48.484375 -14.503906 46.40625 -9.039062 42.25 -4.84375 C 38.101562 -0.65625 32.582031 1.4375 25.6875 1.4375 Z M 25.6875 -8.390625 C 29.4375 -8.390625 32.40625 -9.566406 34.59375 -11.921875 C 36.78125 -14.285156 37.875 -17.390625 37.875 -21.234375 C 37.875 -24.984375 36.78125 -28.015625 34.59375 -30.328125 C 32.40625 -32.648438 29.4375 -33.8125 25.6875 -33.8125 C 21.925781 -33.8125 18.972656 -32.648438 16.828125 -30.328125 C 14.691406 -28.015625 13.625 -24.984375 13.625 -21.234375 C 13.625 -17.390625 14.691406 -14.285156 16.828125 -11.921875 C 18.972656 -9.566406 21.925781 -8.390625 25.6875 -8.390625 Z M 25.6875 -8.390625 "/></g></g></g><g fill="#ffffff" fill-opacity="1"><g transform="translate(116.236238, 95.072115)"><g><path d="M 20.1875 -32.5 L 20.1875 -9.828125 L 33.28125 -9.828125 L 33.28125 0 L 9.296875 0 L 9.296875 -32.5 L 1.703125 -32.5 L 1.703125 -42.203125 L 9.296875 -42.203125 L 9.296875 -59.234375 L 20.1875 -59.234375 L 20.1875 -42.203125 L 32.375 -42.203125 L 32.375 -32.5 Z M 20.1875 -32.5 "/></g></g></g><g fill="#ffffff" fill-opacity="1"><g transform="translate(151.09382, 95.072115)"><g><path d="M 43.765625 -23.984375 C 43.765625 -21.273438 43.59375 -18.875 43.25 -16.78125 L 13.5 -16.78125 C 15.332031 -10.488281 20.75 -7.34375 29.75 -7.34375 C 33.15625 -7.34375 36.34375 -7.734375 39.3125 -8.515625 L 40.625 0 C 37.476562 0.957031 33.503906 1.4375 28.703125 1.4375 C 20.484375 1.4375 14.144531 -0.566406 9.6875 -4.578125 C 5.238281 -8.597656 3.015625 -14.367188 3.015625 -21.890625 C 3.015625 -28.523438 4.847656 -33.804688 8.515625 -37.734375 C 12.179688 -41.671875 17.335938 -43.640625 23.984375 -43.640625 C 30.273438 -43.640625 35.144531 -41.800781 38.59375 -38.125 C 42.039062 -34.457031 43.765625 -29.742188 43.765625 -23.984375 Z M 23.984375 -34.859375 C 20.921875 -34.859375 18.453125 -34.050781 16.578125 -32.4375 C 14.703125 -30.820312 13.546875 -28.484375 13.109375 -25.421875 L 34.46875 -25.421875 C 34.289062 -28.390625 33.285156 -30.703125 31.453125 -32.359375 C 29.617188 -34.023438 27.128906 -34.859375 23.984375 -34.859375 Z M 23.984375 -34.859375 "/></g></g></g><g fill="#ffffff" fill-opacity="1"><g transform="translate(197.614269, 95.072115)"><g><path d="M 17.828125 1.4375 C 13.546875 1.4375 9 0.957031 4.1875 0 L 5.234375 -8.65625 C 9.609375 -7.601562 13.671875 -7.078125 17.421875 -7.078125 C 20.128906 -7.078125 22.140625 -7.445312 23.453125 -8.1875 C 24.765625 -8.925781 25.421875 -10.082031 25.421875 -11.65625 C 25.421875 -13.320312 24.804688 -14.523438 23.578125 -15.265625 C 22.359375 -16.003906 20.441406 -16.679688 17.828125 -17.296875 C 12.847656 -18.429688 9.21875 -20.066406 6.9375 -22.203125 C 4.664062 -24.347656 3.53125 -27.300781 3.53125 -31.0625 C 3.53125 -35.507812 5.144531 -38.71875 8.375 -40.6875 C 11.613281 -42.65625 16.289062 -43.640625 22.40625 -43.640625 C 26.34375 -43.640625 30.234375 -43.160156 34.078125 -42.203125 L 32.625 -33.546875 C 29.75 -34.597656 26.253906 -35.125 22.140625 -35.125 C 19.523438 -35.125 17.515625 -34.835938 16.109375 -34.265625 C 14.710938 -33.703125 14.015625 -32.632812 14.015625 -31.0625 C 14.015625 -29.664062 14.5625 -28.570312 15.65625 -27.78125 C 16.75 -27 18.738281 -26.253906 21.625 -25.546875 C 26.34375 -24.503906 29.898438 -23 32.296875 -21.03125 C 34.703125 -19.0625 35.90625 -15.9375 35.90625 -11.65625 C 35.90625 -2.925781 29.878906 1.4375 17.828125 1.4375 Z M 17.828125 1.4375 "/></g></g></g></g></g></g></svg>